<svg width="320" height="280" viewBox="0 0 320 280" fill="none" xmlns="http://www.w3.org/2000/svg">
<rect opacity="0.02" x="120" y="160" width="40" height="40" fill="#209770"/>
<rect opacity="0.02" x="240" y="40" width="40" height="40" fill="#209770"/>
<rect opacity="0.02" x="280" width="40" height="40" fill="#209770"/>
<rect opacity="0.02" x="80" y="200" width="40" height="40" fill="#209770"/>
<rect opacity="0.02" y="240" width="40" height="40" fill="#209770"/>
<rect opacity="0.1" x="120" y="200" width="40" height="40" fill="#209770"/>
<rect opacity="0.1" x="80" y="240" width="40" height="40" fill="#209770"/>
<rect opacity="0.05" x="120" y="240" width="40" height="40" fill="#209770"/>
<rect opacity="0.05" x="160" y="120" width="40" height="40" fill="#209770"/>
<rect opacity="0.05" x="200" y="80" width="40" height="40" fill="#209770"/>
<rect opacity="0.1" x="160" y="80" width="40" height="40" fill="#209770"/>
<rect opacity="0.1" x="160" y="160" width="40" height="40" fill="#209770"/>
<rect opacity="0.15" x="160" y="200" width="40" height="40" fill="#209770"/>
<rect opacity="0.2" x="160" y="240" width="40" height="40" fill="#209770"/>
<rect opacity="0.2" x="40" y="240" width="40" height="40" fill="#209770"/>
<rect opacity="0.1" x="200" y="120" width="40" height="40" fill="#209770"/>
<rect opacity="0.2" x="200" y="160" width="40" height="40" fill="#209770"/>
<rect opacity="0.25" x="200" y="200" width="40" height="40" fill="#209770"/>
<rect opacity="0.3" x="200" y="240" width="40" height="40" fill="#209770"/>
<rect opacity="0.4" x="240" y="120" width="40" height="40" fill="#209770"/>
<rect opacity="0.12" x="240" y="80" width="40" height="40" fill="#209770"/>
<rect opacity="0.2" x="280" y="80" width="40" height="40" fill="#209770"/>
<rect opacity="0.1" x="280" y="40" width="40" height="40" fill="#209770"/>
<rect opacity="0.3" x="240" y="160" width="40" height="40" fill="#209770"/>
<rect opacity="0.5" x="240" y="200" width="40" height="40" fill="#209770"/>
<rect opacity="0.4" x="240" y="240" width="40" height="40" fill="#209770"/>
<rect opacity="0.5" x="280" y="120" width="40" height="40" fill="#209770"/>
<rect opacity="0.4" x="280" y="160" width="40" height="40" fill="#209770"/>
<rect opacity="0.7" x="280" y="200" width="40" height="40" fill="#209770"/>
<rect opacity="0.6" x="280" y="240" width="40" height="40" fill="#209770"/>
</svg>
