<svg width="320" height="280" viewBox="0 0 320 280" fill="none" xmlns="http://www.w3.org/2000/svg">
<rect opacity="0.02" x="200" y="120" width="40" height="40" transform="rotate(-180 200 120)" fill="#209770"/>
<rect opacity="0.02" x="80" y="240" width="40" height="40" transform="rotate(-180 80 240)" fill="#209770"/>
<rect opacity="0.02" x="40" y="280" width="40" height="40" transform="rotate(-180 40 280)" fill="#209770"/>
<rect opacity="0.02" x="240" y="80" width="40" height="40" transform="rotate(-180 240 80)" fill="#209770"/>
<rect opacity="0.02" x="320" y="40" width="40" height="40" transform="rotate(-180 320 40)" fill="#209770"/>
<rect opacity="0.1" x="200" y="80" width="40" height="40" transform="rotate(-180 200 80)" fill="#209770"/>
<rect opacity="0.1" x="240" y="40" width="40" height="40" transform="rotate(-180 240 40)" fill="#209770"/>
<rect opacity="0.05" x="200" y="40" width="40" height="40" transform="rotate(-180 200 40)" fill="#209770"/>
<rect opacity="0.05" x="160" y="160" width="40" height="40" transform="rotate(-180 160 160)" fill="#209770"/>
<rect opacity="0.05" x="120" y="200" width="40" height="40" transform="rotate(-180 120 200)" fill="#209770"/>
<rect opacity="0.1" x="160" y="200" width="40" height="40" transform="rotate(-180 160 200)" fill="#209770"/>
<rect opacity="0.1" x="160" y="120" width="40" height="40" transform="rotate(-180 160 120)" fill="#209770"/>
<rect opacity="0.15" x="160" y="80" width="40" height="40" transform="rotate(-180 160 80)" fill="#209770"/>
<rect opacity="0.2" x="160" y="40" width="40" height="40" transform="rotate(-180 160 40)" fill="#209770"/>
<rect opacity="0.2" x="280" y="40" width="40" height="40" transform="rotate(-180 280 40)" fill="#209770"/>
<rect opacity="0.1" x="120" y="160" width="40" height="40" transform="rotate(-180 120 160)" fill="#209770"/>
<rect opacity="0.2" x="120" y="120" width="40" height="40" transform="rotate(-180 120 120)" fill="#209770"/>
<rect opacity="0.25" x="120" y="80" width="40" height="40" transform="rotate(-180 120 80)" fill="#209770"/>
<rect opacity="0.3" x="120" y="40" width="40" height="40" transform="rotate(-180 120 40)" fill="#209770"/>
<rect opacity="0.4" x="80" y="160" width="40" height="40" transform="rotate(-180 80 160)" fill="#209770"/>
<rect opacity="0.12" x="80" y="200" width="40" height="40" transform="rotate(-180 80 200)" fill="#209770"/>
<rect opacity="0.2" x="40" y="200" width="40" height="40" transform="rotate(-180 40 200)" fill="#209770"/>
<rect opacity="0.1" x="40" y="240" width="40" height="40" transform="rotate(-180 40 240)" fill="#209770"/>
<rect opacity="0.3" x="80" y="120" width="40" height="40" transform="rotate(-180 80 120)" fill="#209770"/>
<rect opacity="0.5" x="80" y="80" width="40" height="40" transform="rotate(-180 80 80)" fill="#209770"/>
<rect opacity="0.4" x="80" y="40" width="40" height="40" transform="rotate(-180 80 40)" fill="#209770"/>
<rect opacity="0.5" x="40" y="160" width="40" height="40" transform="rotate(-180 40 160)" fill="#209770"/>
<rect opacity="0.4" x="40" y="120" width="40" height="40" transform="rotate(-180 40 120)" fill="#209770"/>
<rect opacity="0.7" x="40" y="80" width="40" height="40" transform="rotate(-180 40 80)" fill="#209770"/>
<rect opacity="0.6" x="40" y="40" width="40" height="40" transform="rotate(-180 40 40)" fill="#209770"/>
</svg>
